<svg width="500" xmlns="http://www.w3.org/2000/svg" height="500" fill="none"><defs><clipPath id="a" class="frame-clip frame-clip-def"><rect rx="0" ry="0" width="500" height="500" transform="matrix(1.000000, 0.000000, 0.000000, 1.000000, 0.000000, 0.000000)"/></clipPath></defs><g clip-path="url(#a)"><g class="fills"><rect width="500" height="500" class="frame-background" transform="matrix(1.000000, 0.000000, 0.000000, 1.000000, 0.000000, 0.000000)" style="fill: rgb(255, 255, 255); fill-opacity: 0;" ry="0" rx="0" fill="none"/></g><g class="frame-children"><rect rx="30" ry="30" x="100" y="50" transform="matrix(1.000000, 0.000000, 0.000000, 1.000000, 0.000000, 0.000000)" width="300" height="400" style="fill: rgb(129, 142, 138); fill-opacity: 1;" class="fills"/><path d="M129.99999999999994,50 h240 a30,30 0 0 1 30,30 v33.99999999999994 a0,0 0 0 1 0,0 h-300 a0,0 0 0 1 0,0 v-33.99999999999994 a30,30 0 0 1 30,-30 z" transform="matrix(1.000000, 0.000000, 0.000000, 1.000000, 0.000000, 0.000000)" style="fill: rgb(118, 126, 125); fill-opacity: 1;" class="fills"/><rect rx="0" ry="0" x="186.744" y="224.744" transform="matrix(-0.707107, 0.707107, -0.707107, -0.707107, 751.452886, 188.225397)" width="300" height="50" style="fill: rgb(80, 86, 89); fill-opacity: 1;" class="fills"/><path d="M213.250,338.000L250.000,372.586L187.000,397.000L213.250,338.000Z" style="fill: rgb(80, 86, 89); fill-opacity: 1;" class="fills"/></g></g></svg>